<svg width="105" height="22" viewBox="0 0 105 22" fill="none" xmlns="http://www.w3.org/2000/svg">
<g clip-path="url(#clip0_405_20)">
<path fill-rule="evenodd" clip-rule="evenodd" d="M19.8332 8.43387L16.8259 1.6001H15.0659L18.8578 10.1625L19.8332 8.43387ZM19.8063 12.3042L20.781 10.5878L22.7236 15.002L26.4852 6.5127H28.1363L23.4919 17.0001H21.8859L19.8063 12.3042ZM28.7318 5.16817L30.3119 1.6001H28.6619L27.0809 5.16817H28.7318Z" fill="white"/>
<path d="M33.178 17V5.45H34.74V17H33.178ZM33.97 2.898C33.6473 2.898 33.376 2.788 33.156 2.568C32.936 2.348 32.826 2.084 32.826 1.776C32.826 1.468 32.936 1.21133 33.156 1.006C33.376 0.785999 33.6473 0.675999 33.97 0.675999C34.2927 0.675999 34.564 0.778666 34.784 0.983999C35.004 1.18933 35.114 1.446 35.114 1.754C35.114 2.07667 35.004 2.348 34.784 2.568C34.5787 2.788 34.3073 2.898 33.97 2.898ZM42.7382 17.11C41.6529 17.11 40.8169 16.8167 40.2302 16.23C39.6435 15.6433 39.3502 14.8147 39.3502 13.744V2.898H40.9122V13.656C40.9122 14.3307 41.0809 14.8513 41.4182 15.218C41.7702 15.5847 42.2689 15.768 42.9142 15.768C43.6035 15.768 44.1755 15.57 44.6302 15.174L45.1802 16.296C44.8722 16.5747 44.4982 16.78 44.0582 16.912C43.6329 17.044 43.1929 17.11 42.7382 17.11ZM37.2822 6.748V5.45H44.4322V6.748H37.2822ZM55.2617 17V14.448L55.1957 14.03V9.762C55.1957 8.77933 54.917 8.024 54.3597 7.496C53.817 6.968 53.003 6.704 51.9177 6.704C51.1697 6.704 50.4584 6.82867 49.7837 7.078C49.109 7.32733 48.537 7.65733 48.0677 8.068L47.3637 6.902C47.9504 6.40333 48.6544 6.022 49.4757 5.758C50.297 5.47933 51.1624 5.34 52.0717 5.34C53.5677 5.34 54.719 5.714 55.5257 6.462C56.347 7.19533 56.7577 8.31733 56.7577 9.828V17H55.2617ZM51.2797 17.11C50.4144 17.11 49.659 16.9707 49.0137 16.692C48.383 16.3987 47.899 16.0027 47.5617 15.504C47.2244 14.9907 47.0557 14.404 47.0557 13.744C47.0557 13.1427 47.195 12.6 47.4737 12.116C47.767 11.6173 48.2364 11.2213 48.8817 10.928C49.5417 10.62 50.4217 10.466 51.5217 10.466H55.5037V11.632H51.5657C50.451 11.632 49.6737 11.83 49.2337 12.226C48.8084 12.622 48.5957 13.1133 48.5957 13.7C48.5957 14.36 48.8524 14.888 49.3657 15.284C49.879 15.68 50.5977 15.878 51.5217 15.878C52.4017 15.878 53.157 15.68 53.7877 15.284C54.433 14.8733 54.9024 14.2867 55.1957 13.524L55.5477 14.602C55.2544 15.3647 54.741 15.9733 54.0077 16.428C53.289 16.8827 52.3797 17.11 51.2797 17.11ZM61.0003 17V0.675999H62.5623V17H61.0003ZM66.9085 17V5.45H68.4705V17H66.9085ZM67.7005 2.898C67.3778 2.898 67.1065 2.788 66.8865 2.568C66.6665 2.348 66.5565 2.084 66.5565 1.776C66.5565 1.468 66.6665 1.21133 66.8865 1.006C67.1065 0.785999 67.3778 0.675999 67.7005 0.675999C68.0231 0.675999 68.2945 0.778666 68.5145 0.983999C68.7345 1.18933 68.8445 1.446 68.8445 1.754C68.8445 2.07667 68.7345 2.348 68.5145 2.568C68.3091 2.788 68.0378 2.898 67.7005 2.898ZM72.9047 21.378C72.362 21.378 71.8413 21.29 71.3427 21.114C70.8587 20.938 70.4407 20.674 70.0887 20.322L70.8147 19.156C71.108 19.4347 71.4233 19.6473 71.7607 19.794C72.1127 19.9553 72.5013 20.036 72.9267 20.036C73.44 20.036 73.88 19.8893 74.2467 19.596C74.628 19.3173 74.9873 18.8187 75.3247 18.1L76.0727 16.406L76.2487 16.164L81.0007 5.45H82.5407L76.7547 18.386C76.432 19.134 76.0727 19.728 75.6767 20.168C75.2953 20.608 74.8773 20.916 74.4227 21.092C73.968 21.2827 73.462 21.378 72.9047 21.378ZM75.9847 17.33L70.6607 5.45H72.2887L76.9967 16.054L75.9847 17.33Z" fill="white"/>
<path d="M81.45 21.2L88.71 0.475999H90.14L82.88 21.2H81.45ZM90.9091 15.854V14.49L99.9071 10.948V11.652L90.9091 8.11V6.746L100.479 10.574V12.026L90.9091 15.854Z" fill="white"/>
<path d="M13.11 14.854L3.54 11.026V9.574L13.11 5.746V7.11L4.112 10.652V9.948L13.11 13.49V14.854Z" fill="white"/>
</g>
<defs>
<clipPath id="clip0_405_20">
<rect width="105" height="22" fill="white"/>
</clipPath>
</defs>
</svg>
